<svg xmlns="http://www.w3.org/2000/svg" xmlns:xlink="http://www.w3.org/1999/xlink" contentStyleType="text/css" data-diagram-type="CLASS" height="507px" preserveAspectRatio="none" style="width:843px;height:507px;background:#FFFFFF;" version="1.1" viewBox="0 0 843 507" width="843px" zoomAndPan="magnify"><defs/><g><!--class CollisionChecker--><g class="entity" data-entity="CollisionChecker" data-source-line="1" data-uid="ent0002" id="entity_CollisionChecker"><rect fill="#F1F1F1" height="100.8281" rx="2.5" ry="2.5" style="stroke:#181818;stroke-width:0.5;" width="158.2617" x="448" y="7"/><ellipse cx="472.5493" cy="23" fill="#ADD1B2" rx="11" ry="11" style="stroke:#181818;stroke-width:1;"/><path d="M475.3149,18.875 Q475.4712,18.6563 475.6587,18.5469 Q475.8462,18.4375 476.0649,18.4375 Q476.4399,18.4375 476.6743,18.7031 Q476.9087,18.9531 476.9087,19.5625 L476.9087,21.0156 Q476.9087,21.625 476.6743,21.8906 Q476.4399,22.1563 476.0649,22.1563 Q475.7212,22.1563 475.5181,21.9531 Q475.3149,21.7656 475.2056,21.25 Q475.1587,20.8906 474.9712,20.7031 Q474.6431,20.3281 474.0337,20.1094 Q473.4243,19.8906 472.7993,19.8906 Q472.0337,19.8906 471.3931,20.2188 Q470.7681,20.5469 470.2681,21.2969 Q469.7837,22.0469 469.7837,23.0781 L469.7837,24.1719 Q469.7837,25.4063 470.6743,26.2344 Q471.5649,27.0469 473.1587,27.0469 Q474.0962,27.0469 474.7524,26.7969 Q475.1431,26.6406 475.5649,26.2031 Q475.8306,25.9375 475.9712,25.8594 Q476.1274,25.7813 476.3306,25.7813 Q476.6587,25.7813 476.9087,26.0469 Q477.1743,26.2969 477.1743,26.6406 Q477.1743,26.9844 476.8306,27.3906 Q476.3306,27.9688 475.5337,28.2969 Q474.4556,28.75 473.1587,28.75 Q471.6431,28.75 470.4399,28.125 Q469.4556,27.625 468.7681,26.5625 Q468.0806,25.4844 468.0806,24.2031 L468.0806,23.0469 Q468.0806,21.7188 468.6899,20.5781 Q469.3149,19.4219 470.4087,18.8125 Q471.5024,18.1875 472.7368,18.1875 Q473.4712,18.1875 474.1118,18.3594 Q474.7681,18.5156 475.3149,18.875 Z " fill="#000000"/><text fill="#000000" font-family="sans-serif" font-size="14" lengthAdjust="spacing" textLength="105.041" x="488.6714" y="28.7285">CollisionChecker</text><line style="stroke:#181818;stroke-width:0.5;" x1="449" x2="605.2617" y1="39" y2="39"/><line style="stroke:#181818;stroke-width:0.5;" x1="449" x2="605.2617" y1="47" y2="47"/><ellipse cx="459" cy="61.3047" fill="#84BE84" rx="3" ry="3" style="stroke:#038048;stroke-width:1;"/><text fill="#000000" font-family="sans-serif" font-size="14" lengthAdjust="spacing" textLength="89.4824" x="468" y="65.5332">SetPositionX()</text><ellipse cx="459" cy="78.9141" fill="#84BE84" rx="3" ry="3" style="stroke:#038048;stroke-width:1;"/><text fill="#000000" font-family="sans-serif" font-size="14" lengthAdjust="spacing" textLength="89.4824" x="468" y="83.1426">SetPositionY()</text><ellipse cx="459" cy="96.5234" fill="#84BE84" rx="3" ry="3" style="stroke:#038048;stroke-width:1;"/><text fill="#000000" font-family="sans-serif" font-size="14" lengthAdjust="spacing" textLength="132.2617" x="468" y="100.752">CheckFieldCollision()</text></g><!--class Figur--><g class="entity" data-entity="Figur" data-source-line="6" data-uid="ent0003" id="entity_Figur"><rect fill="#F1F1F1" height="48" rx="2.5" ry="2.5" style="stroke:#181818;stroke-width:0.5;" width="63.8965" x="643" y="212"/><ellipse cx="658" cy="228" fill="#ADD1B2" rx="11" ry="11" style="stroke:#181818;stroke-width:1;"/><path d="M660.7656,223.875 Q660.9219,223.6563 661.1094,223.5469 Q661.2969,223.4375 661.5156,223.4375 Q661.8906,223.4375 662.125,223.7031 Q662.3594,223.9531 662.3594,224.5625 L662.3594,226.0156 Q662.3594,226.625 662.125,226.8906 Q661.8906,227.1563 661.5156,227.1563 Q661.1719,227.1563 660.9688,226.9531 Q660.7656,226.7656 660.6563,226.25 Q660.6094,225.8906 660.4219,225.7031 Q660.0938,225.3281 659.4844,225.1094 Q658.875,224.8906 658.25,224.8906 Q657.4844,224.8906 656.8438,225.2188 Q656.2188,225.5469 655.7188,226.2969 Q655.2344,227.0469 655.2344,228.0781 L655.2344,229.1719 Q655.2344,230.4063 656.125,231.2344 Q657.0156,232.0469 658.6094,232.0469 Q659.5469,232.0469 660.2031,231.7969 Q660.5938,231.6406 661.0156,231.2031 Q661.2813,230.9375 661.4219,230.8594 Q661.5781,230.7813 661.7813,230.7813 Q662.1094,230.7813 662.3594,231.0469 Q662.625,231.2969 662.625,231.6406 Q662.625,231.9844 662.2813,232.3906 Q661.7813,232.9688 660.9844,233.2969 Q659.9063,233.75 658.6094,233.75 Q657.0938,233.75 655.8906,233.125 Q654.9063,232.625 654.2188,231.5625 Q653.5313,230.4844 653.5313,229.2031 L653.5313,228.0469 Q653.5313,226.7188 654.1406,225.5781 Q654.7656,224.4219 655.8594,223.8125 Q656.9531,223.1875 658.1875,223.1875 Q658.9219,223.1875 659.5625,223.3594 Q660.2188,223.5156 660.7656,223.875 Z " fill="#000000"/><text fill="#000000" font-family="sans-serif" font-size="14" lengthAdjust="spacing" textLength="31.8965" x="672" y="233.7285">Figur</text><line style="stroke:#181818;stroke-width:0.5;" x1="644" x2="705.8965" y1="244" y2="244"/><line style="stroke:#181818;stroke-width:0.5;" x1="644" x2="705.8965" y1="252" y2="252"/></g><!--class FileReader--><g class="entity" data-entity="FileReader" data-source-line="7" data-uid="ent0005" id="entity_FileReader"><rect fill="#F1F1F1" height="83.2188" rx="2.5" ry="2.5" style="stroke:#181818;stroke-width:0.5;" width="115.4756" x="30.5" y="16"/><ellipse cx="52.25" cy="32" fill="#ADD1B2" rx="11" ry="11" style="stroke:#181818;stroke-width:1;"/><path d="M55.0156,27.875 Q55.1719,27.6563 55.3594,27.5469 Q55.5469,27.4375 55.7656,27.4375 Q56.1406,27.4375 56.375,27.7031 Q56.6094,27.9531 56.6094,28.5625 L56.6094,30.0156 Q56.6094,30.625 56.375,30.8906 Q56.1406,31.1563 55.7656,31.1563 Q55.4219,31.1563 55.2188,30.9531 Q55.0156,30.7656 54.9063,30.25 Q54.8594,29.8906 54.6719,29.7031 Q54.3438,29.3281 53.7344,29.1094 Q53.125,28.8906 52.5,28.8906 Q51.7344,28.8906 51.0938,29.2188 Q50.4688,29.5469 49.9688,30.2969 Q49.4844,31.0469 49.4844,32.0781 L49.4844,33.1719 Q49.4844,34.4063 50.375,35.2344 Q51.2656,36.0469 52.8594,36.0469 Q53.7969,36.0469 54.4531,35.7969 Q54.8438,35.6406 55.2656,35.2031 Q55.5313,34.9375 55.6719,34.8594 Q55.8281,34.7813 56.0313,34.7813 Q56.3594,34.7813 56.6094,35.0469 Q56.875,35.2969 56.875,35.6406 Q56.875,35.9844 56.5313,36.3906 Q56.0313,36.9688 55.2344,37.2969 Q54.1563,37.75 52.8594,37.75 Q51.3438,37.75 50.1406,37.125 Q49.1563,36.625 48.4688,35.5625 Q47.7813,34.4844 47.7813,33.2031 L47.7813,32.0469 Q47.7813,30.7188 48.3906,29.5781 Q49.0156,28.4219 50.1094,27.8125 Q51.2031,27.1875 52.4375,27.1875 Q53.1719,27.1875 53.8125,27.3594 Q54.4688,27.5156 55.0156,27.875 Z " fill="#000000"/><text fill="#000000" font-family="sans-serif" font-size="14" lengthAdjust="spacing" textLength="68.4756" x="67.75" y="37.7285">FileReader</text><line style="stroke:#181818;stroke-width:0.5;" x1="31.5" x2="144.9756" y1="48" y2="48"/><line style="stroke:#181818;stroke-width:0.5;" x1="31.5" x2="144.9756" y1="56" y2="56"/><ellipse cx="41.5" cy="70.3047" fill="#84BE84" rx="3" ry="3" style="stroke:#038048;stroke-width:1;"/><text fill="#000000" font-family="sans-serif" font-size="14" lengthAdjust="spacing" textLength="65.3516" x="50.5" y="74.5332">ReadFile()</text><ellipse cx="41.5" cy="87.9141" fill="#84BE84" rx="3" ry="3" style="stroke:#038048;stroke-width:1;"/><text fill="#000000" font-family="sans-serif" font-size="14" lengthAdjust="spacing" textLength="89.4756" x="50.5" y="92.1426">HasNextLine()</text></g><!--class Pellet--><g class="entity" data-entity="Pellet" data-source-line="11" data-uid="ent0006" id="entity_Pellet"><rect fill="#F1F1F1" height="48" rx="2.5" ry="2.5" style="stroke:#181818;stroke-width:0.5;" width="67.0205" x="641.5" y="33.5"/><ellipse cx="656.5" cy="49.5" fill="#ADD1B2" rx="11" ry="11" style="stroke:#181818;stroke-width:1;"/><path d="M659.2656,45.375 Q659.4219,45.1563 659.6094,45.0469 Q659.7969,44.9375 660.0156,44.9375 Q660.3906,44.9375 660.625,45.2031 Q660.8594,45.4531 660.8594,46.0625 L660.8594,47.5156 Q660.8594,48.125 660.625,48.3906 Q660.3906,48.6563 660.0156,48.6563 Q659.6719,48.6563 659.4688,48.4531 Q659.2656,48.2656 659.1563,47.75 Q659.1094,47.3906 658.9219,47.2031 Q658.5938,46.8281 657.9844,46.6094 Q657.375,46.3906 656.75,46.3906 Q655.9844,46.3906 655.3438,46.7188 Q654.7188,47.0469 654.2188,47.7969 Q653.7344,48.5469 653.7344,49.5781 L653.7344,50.6719 Q653.7344,51.9063 654.625,52.7344 Q655.5156,53.5469 657.1094,53.5469 Q658.0469,53.5469 658.7031,53.2969 Q659.0938,53.1406 659.5156,52.7031 Q659.7813,52.4375 659.9219,52.3594 Q660.0781,52.2813 660.2813,52.2813 Q660.6094,52.2813 660.8594,52.5469 Q661.125,52.7969 661.125,53.1406 Q661.125,53.4844 660.7813,53.8906 Q660.2813,54.4688 659.4844,54.7969 Q658.4063,55.25 657.1094,55.25 Q655.5938,55.25 654.3906,54.625 Q653.4063,54.125 652.7188,53.0625 Q652.0313,51.9844 652.0313,50.7031 L652.0313,49.5469 Q652.0313,48.2188 652.6406,47.0781 Q653.2656,45.9219 654.3594,45.3125 Q655.4531,44.6875 656.6875,44.6875 Q657.4219,44.6875 658.0625,44.8594 Q658.7188,45.0156 659.2656,45.375 Z " fill="#000000"/><text fill="#000000" font-family="sans-serif" font-size="14" lengthAdjust="spacing" textLength="35.0205" x="670.5" y="55.2285">Pellet</text><line style="stroke:#181818;stroke-width:0.5;" x1="642.5" x2="707.5205" y1="65.5" y2="65.5"/><line style="stroke:#181818;stroke-width:0.5;" x1="642.5" x2="707.5205" y1="73.5" y2="73.5"/></g><!--class PelletManager--><g class="entity" data-entity="PelletManager" data-source-line="14" data-uid="ent0008" id="entity_PelletManager"><rect fill="#F1F1F1" height="83.2188" rx="2.5" ry="2.5" style="stroke:#181818;stroke-width:0.5;" width="133.3721" x="180.5" y="16"/><ellipse cx="200.4935" cy="32" fill="#ADD1B2" rx="11" ry="11" style="stroke:#181818;stroke-width:1;"/><path d="M203.2591,27.875 Q203.4154,27.6563 203.6029,27.5469 Q203.7904,27.4375 204.0091,27.4375 Q204.3841,27.4375 204.6185,27.7031 Q204.8529,27.9531 204.8529,28.5625 L204.8529,30.0156 Q204.8529,30.625 204.6185,30.8906 Q204.3841,31.1563 204.0091,31.1563 Q203.6654,31.1563 203.4623,30.9531 Q203.2591,30.7656 203.1498,30.25 Q203.1029,29.8906 202.9154,29.7031 Q202.5873,29.3281 201.9779,29.1094 Q201.3685,28.8906 200.7435,28.8906 Q199.9779,28.8906 199.3373,29.2188 Q198.7123,29.5469 198.2123,30.2969 Q197.7279,31.0469 197.7279,32.0781 L197.7279,33.1719 Q197.7279,34.4063 198.6185,35.2344 Q199.5091,36.0469 201.1029,36.0469 Q202.0404,36.0469 202.6966,35.7969 Q203.0873,35.6406 203.5091,35.2031 Q203.7748,34.9375 203.9154,34.8594 Q204.0716,34.7813 204.2748,34.7813 Q204.6029,34.7813 204.8529,35.0469 Q205.1185,35.2969 205.1185,35.6406 Q205.1185,35.9844 204.7748,36.3906 Q204.2748,36.9688 203.4779,37.2969 Q202.3998,37.75 201.1029,37.75 Q199.5873,37.75 198.3841,37.125 Q197.3998,36.625 196.7123,35.5625 Q196.0248,34.4844 196.0248,33.2031 L196.0248,32.0469 Q196.0248,30.7188 196.6341,29.5781 Q197.2591,28.4219 198.3529,27.8125 Q199.4466,27.1875 200.681,27.1875 Q201.4154,27.1875 202.056,27.3594 Q202.7123,27.5156 203.2591,27.875 Z " fill="#000000"/><text fill="#000000" font-family="sans-serif" font-size="14" lengthAdjust="spacing" textLength="90.2754" x="215.6032" y="37.7285">PelletManager</text><line style="stroke:#181818;stroke-width:0.5;" x1="181.5" x2="312.8721" y1="48" y2="48"/><line style="stroke:#181818;stroke-width:0.5;" x1="181.5" x2="312.8721" y1="56" y2="56"/><ellipse cx="191.5" cy="70.3047" fill="#84BE84" rx="3" ry="3" style="stroke:#038048;stroke-width:1;"/><text fill="#000000" font-family="sans-serif" font-size="14" lengthAdjust="spacing" textLength="107.3721" x="200.5" y="74.5332">spawnAllPellets()</text><ellipse cx="191.5" cy="87.9141" fill="#84BE84" rx="3" ry="3" style="stroke:#038048;stroke-width:1;"/><text fill="#000000" font-family="sans-serif" font-size="14" lengthAdjust="spacing" textLength="91.0273" x="200.5" y="92.1426">removePellet()</text></g><!--class Point--><g class="entity" data-entity="Point" data-source-line="18" data-uid="ent0009" id="entity_Point"><rect fill="#F1F1F1" height="48" rx="2.5" ry="2.5" style="stroke:#181818;stroke-width:0.5;" width="63.9102" x="349" y="33.5"/><ellipse cx="364" cy="49.5" fill="#ADD1B2" rx="11" ry="11" style="stroke:#181818;stroke-width:1;"/><path d="M366.7656,45.375 Q366.9219,45.1563 367.1094,45.0469 Q367.2969,44.9375 367.5156,44.9375 Q367.8906,44.9375 368.125,45.2031 Q368.3594,45.4531 368.3594,46.0625 L368.3594,47.5156 Q368.3594,48.125 368.125,48.3906 Q367.8906,48.6563 367.5156,48.6563 Q367.1719,48.6563 366.9688,48.4531 Q366.7656,48.2656 366.6563,47.75 Q366.6094,47.3906 366.4219,47.2031 Q366.0938,46.8281 365.4844,46.6094 Q364.875,46.3906 364.25,46.3906 Q363.4844,46.3906 362.8438,46.7188 Q362.2188,47.0469 361.7188,47.7969 Q361.2344,48.5469 361.2344,49.5781 L361.2344,50.6719 Q361.2344,51.9063 362.125,52.7344 Q363.0156,53.5469 364.6094,53.5469 Q365.5469,53.5469 366.2031,53.2969 Q366.5938,53.1406 367.0156,52.7031 Q367.2813,52.4375 367.4219,52.3594 Q367.5781,52.2813 367.7813,52.2813 Q368.1094,52.2813 368.3594,52.5469 Q368.625,52.7969 368.625,53.1406 Q368.625,53.4844 368.2813,53.8906 Q367.7813,54.4688 366.9844,54.7969 Q365.9063,55.25 364.6094,55.25 Q363.0938,55.25 361.8906,54.625 Q360.9063,54.125 360.2188,53.0625 Q359.5313,51.9844 359.5313,50.7031 L359.5313,49.5469 Q359.5313,48.2188 360.1406,47.0781 Q360.7656,45.9219 361.8594,45.3125 Q362.9531,44.6875 364.1875,44.6875 Q364.9219,44.6875 365.5625,44.8594 Q366.2188,45.0156 366.7656,45.375 Z " fill="#000000"/><text fill="#000000" font-family="sans-serif" font-size="14" lengthAdjust="spacing" textLength="31.9102" x="378" y="55.2285">Point</text><line style="stroke:#181818;stroke-width:0.5;" x1="350" x2="411.9102" y1="65.5" y2="65.5"/><line style="stroke:#181818;stroke-width:0.5;" x1="350" x2="411.9102" y1="73.5" y2="73.5"/></g><!--class PowerDot--><g class="entity" data-entity="PowerDot" data-source-line="20" data-uid="ent0010" id="entity_PowerDot"><rect fill="#F1F1F1" height="48" rx="2.5" ry="2.5" style="stroke:#181818;stroke-width:0.5;" width="93.4688" x="743.5" y="33.5"/><ellipse cx="758.5" cy="49.5" fill="#ADD1B2" rx="11" ry="11" style="stroke:#181818;stroke-width:1;"/><path d="M761.2656,45.375 Q761.4219,45.1563 761.6094,45.0469 Q761.7969,44.9375 762.0156,44.9375 Q762.3906,44.9375 762.625,45.2031 Q762.8594,45.4531 762.8594,46.0625 L762.8594,47.5156 Q762.8594,48.125 762.625,48.3906 Q762.3906,48.6563 762.0156,48.6563 Q761.6719,48.6563 761.4688,48.4531 Q761.2656,48.2656 761.1563,47.75 Q761.1094,47.3906 760.9219,47.2031 Q760.5938,46.8281 759.9844,46.6094 Q759.375,46.3906 758.75,46.3906 Q757.9844,46.3906 757.3438,46.7188 Q756.7188,47.0469 756.2188,47.7969 Q755.7344,48.5469 755.7344,49.5781 L755.7344,50.6719 Q755.7344,51.9063 756.625,52.7344 Q757.5156,53.5469 759.1094,53.5469 Q760.0469,53.5469 760.7031,53.2969 Q761.0938,53.1406 761.5156,52.7031 Q761.7813,52.4375 761.9219,52.3594 Q762.0781,52.2813 762.2813,52.2813 Q762.6094,52.2813 762.8594,52.5469 Q763.125,52.7969 763.125,53.1406 Q763.125,53.4844 762.7813,53.8906 Q762.2813,54.4688 761.4844,54.7969 Q760.4063,55.25 759.1094,55.25 Q757.5938,55.25 756.3906,54.625 Q755.4063,54.125 754.7188,53.0625 Q754.0313,51.9844 754.0313,50.7031 L754.0313,49.5469 Q754.0313,48.2188 754.6406,47.0781 Q755.2656,45.9219 756.3594,45.3125 Q757.4531,44.6875 758.6875,44.6875 Q759.4219,44.6875 760.0625,44.8594 Q760.7188,45.0156 761.2656,45.375 Z " fill="#000000"/><text fill="#000000" font-family="sans-serif" font-size="14" lengthAdjust="spacing" textLength="61.4688" x="772.5" y="55.2285">PowerDot</text><line style="stroke:#181818;stroke-width:0.5;" x1="744.5" x2="835.9688" y1="65.5" y2="65.5"/><line style="stroke:#181818;stroke-width:0.5;" x1="744.5" x2="835.9688" y1="73.5" y2="73.5"/></g><!--class PowerModeManager--><g class="entity" data-entity="PowerModeManager" data-source-line="23" data-uid="ent0012" id="entity_PowerModeManager"><rect fill="#F1F1F1" height="100.8281" rx="2.5" ry="2.5" style="stroke:#181818;stroke-width:0.5;" width="162.1582" x="7" y="185.5"/><ellipse cx="22.0901" cy="201.5" fill="#ADD1B2" rx="11" ry="11" style="stroke:#181818;stroke-width:1;"/><path d="M24.8557,197.375 Q25.012,197.1563 25.1995,197.0469 Q25.387,196.9375 25.6057,196.9375 Q25.9807,196.9375 26.2151,197.2031 Q26.4495,197.4531 26.4495,198.0625 L26.4495,199.5156 Q26.4495,200.125 26.2151,200.3906 Q25.9807,200.6563 25.6057,200.6563 Q25.262,200.6563 25.0588,200.4531 Q24.8557,200.2656 24.7463,199.75 Q24.6995,199.3906 24.512,199.2031 Q24.1838,198.8281 23.5745,198.6094 Q22.9651,198.3906 22.3401,198.3906 Q21.5745,198.3906 20.9338,198.7188 Q20.3088,199.0469 19.8088,199.7969 Q19.3245,200.5469 19.3245,201.5781 L19.3245,202.6719 Q19.3245,203.9063 20.2151,204.7344 Q21.1057,205.5469 22.6995,205.5469 Q23.637,205.5469 24.2932,205.2969 Q24.6838,205.1406 25.1057,204.7031 Q25.3713,204.4375 25.512,204.3594 Q25.6682,204.2813 25.8713,204.2813 Q26.1995,204.2813 26.4495,204.5469 Q26.7151,204.7969 26.7151,205.1406 Q26.7151,205.4844 26.3713,205.8906 Q25.8713,206.4688 25.0745,206.7969 Q23.9963,207.25 22.6995,207.25 Q21.1838,207.25 19.9807,206.625 Q18.9963,206.125 18.3088,205.0625 Q17.6213,203.9844 17.6213,202.7031 L17.6213,201.5469 Q17.6213,200.2188 18.2307,199.0781 Q18.8557,197.9219 19.9495,197.3125 Q21.0432,196.6875 22.2776,196.6875 Q23.012,196.6875 23.6526,196.8594 Q24.3088,197.0156 24.8557,197.375 Z " fill="#000000"/><text fill="#000000" font-family="sans-serif" font-size="14" lengthAdjust="spacing" textLength="129.958" x="36.1101" y="207.2285">PowerModeManager</text><line style="stroke:#181818;stroke-width:0.5;" x1="8" x2="168.1582" y1="217.5" y2="217.5"/><line style="stroke:#181818;stroke-width:0.5;" x1="8" x2="168.1582" y1="225.5" y2="225.5"/><ellipse cx="18" cy="239.8047" fill="#84BE84" rx="3" ry="3" style="stroke:#038048;stroke-width:1;"/><text fill="#000000" font-family="sans-serif" font-size="14" lengthAdjust="spacing" textLength="98.0273" x="27" y="244.0332">istPowerMode()</text><ellipse cx="18" cy="257.4141" fill="#84BE84" rx="3" ry="3" style="stroke:#038048;stroke-width:1;"/><text fill="#000000" font-family="sans-serif" font-size="14" lengthAdjust="spacing" textLength="136.1582" x="27" y="261.6426">aktivierePowerMode()</text><ellipse cx="18" cy="275.0234" fill="#84BE84" rx="3" ry="3" style="stroke:#038048;stroke-width:1;"/><text fill="#000000" font-family="sans-serif" font-size="14" lengthAdjust="spacing" textLength="30.3242" x="27" y="279.252">tick()</text></g><!--class AStar--><g class="entity" data-entity="AStar" data-source-line="28" data-uid="ent0013" id="entity_AStar"><rect fill="#F1F1F1" height="136.0469" rx="2.5" ry="2.5" style="stroke:#181818;stroke-width:0.5;" width="131.0547" x="204.5" y="168"/><ellipse cx="248.3185" cy="184" fill="#ADD1B2" rx="11" ry="11" style="stroke:#181818;stroke-width:1;"/><path d="M251.0841,179.875 Q251.2403,179.6563 251.4278,179.5469 Q251.6153,179.4375 251.8341,179.4375 Q252.2091,179.4375 252.4435,179.7031 Q252.6778,179.9531 252.6778,180.5625 L252.6778,182.0156 Q252.6778,182.625 252.4435,182.8906 Q252.2091,183.1563 251.8341,183.1563 Q251.4903,183.1563 251.2872,182.9531 Q251.0841,182.7656 250.9747,182.25 Q250.9278,181.8906 250.7403,181.7031 Q250.4122,181.3281 249.8028,181.1094 Q249.1935,180.8906 248.5685,180.8906 Q247.8028,180.8906 247.1622,181.2188 Q246.5372,181.5469 246.0372,182.2969 Q245.5528,183.0469 245.5528,184.0781 L245.5528,185.1719 Q245.5528,186.4063 246.4435,187.2344 Q247.3341,188.0469 248.9278,188.0469 Q249.8653,188.0469 250.5216,187.7969 Q250.9122,187.6406 251.3341,187.2031 Q251.5997,186.9375 251.7403,186.8594 Q251.8966,186.7813 252.0997,186.7813 Q252.4278,186.7813 252.6778,187.0469 Q252.9435,187.2969 252.9435,187.6406 Q252.9435,187.9844 252.5997,188.3906 Q252.0997,188.9688 251.3028,189.2969 Q250.2247,189.75 248.9278,189.75 Q247.4122,189.75 246.2091,189.125 Q245.2247,188.625 244.5372,187.5625 Q243.8497,186.4844 243.8497,185.2031 L243.8497,184.0469 Q243.8497,182.7188 244.4591,181.5781 Q245.0841,180.4219 246.1778,179.8125 Q247.2716,179.1875 248.506,179.1875 Q249.2403,179.1875 249.881,179.3594 Q250.5372,179.5156 251.0841,179.875 Z " fill="#000000"/><text fill="#000000" font-family="sans-serif" font-size="14" lengthAdjust="spacing" textLength="35.0137" x="268.7226" y="189.7285">AStar</text><line style="stroke:#181818;stroke-width:0.5;" x1="205.5" x2="334.5547" y1="200" y2="200"/><line style="stroke:#181818;stroke-width:0.5;" x1="205.5" x2="334.5547" y1="208" y2="208"/><ellipse cx="215.5" cy="222.3047" fill="#84BE84" rx="3" ry="3" style="stroke:#038048;stroke-width:1;"/><text fill="#000000" font-family="sans-serif" font-size="14" lengthAdjust="spacing" textLength="60.6963" x="224.5" y="226.5332">findPath()</text><ellipse cx="215.5" cy="239.9141" fill="#84BE84" rx="3" ry="3" style="stroke:#038048;stroke-width:1;"/><text fill="#000000" font-family="sans-serif" font-size="14" lengthAdjust="spacing" textLength="84.0342" x="224.5" y="244.1426">smoothPath()</text><ellipse cx="215.5" cy="257.5234" fill="#84BE84" rx="3" ry="3" style="stroke:#038048;stroke-width:1;"/><text fill="#000000" font-family="sans-serif" font-size="14" lengthAdjust="spacing" textLength="105.0547" x="224.5" y="261.752">hasLineOfSight()</text><ellipse cx="215.5" cy="275.1328" fill="#84BE84" rx="3" ry="3" style="stroke:#038048;stroke-width:1;"/><text fill="#000000" font-family="sans-serif" font-size="14" lengthAdjust="spacing" textLength="67.7031" x="224.5" y="279.3613">inBounds()</text><ellipse cx="215.5" cy="292.7422" fill="#84BE84" rx="3" ry="3" style="stroke:#038048;stroke-width:1;"/><text fill="#000000" font-family="sans-serif" font-size="14" lengthAdjust="spacing" textLength="61.4551" x="224.5" y="296.9707">heuristic()</text></g><!--class GraphTraversal--><g class="entity" data-entity="GraphTraversal" data-source-line="35" data-uid="ent0014" id="entity_GraphTraversal"><rect fill="#F1F1F1" height="136.0469" rx="2.5" ry="2.5" style="stroke:#181818;stroke-width:0.5;" width="159.8203" x="371" y="168"/><ellipse cx="399.7544" cy="184" fill="#ADD1B2" rx="11" ry="11" style="stroke:#181818;stroke-width:1;"/><path d="M402.5201,179.875 Q402.6763,179.6563 402.8638,179.5469 Q403.0513,179.4375 403.2701,179.4375 Q403.6451,179.4375 403.8794,179.7031 Q404.1138,179.9531 404.1138,180.5625 L404.1138,182.0156 Q404.1138,182.625 403.8794,182.8906 Q403.6451,183.1563 403.2701,183.1563 Q402.9263,183.1563 402.7232,182.9531 Q402.5201,182.7656 402.4107,182.25 Q402.3638,181.8906 402.1763,181.7031 Q401.8482,181.3281 401.2388,181.1094 Q400.6294,180.8906 400.0044,180.8906 Q399.2388,180.8906 398.5982,181.2188 Q397.9732,181.5469 397.4732,182.2969 Q396.9888,183.0469 396.9888,184.0781 L396.9888,185.1719 Q396.9888,186.4063 397.8794,187.2344 Q398.7701,188.0469 400.3638,188.0469 Q401.3013,188.0469 401.9576,187.7969 Q402.3482,187.6406 402.7701,187.2031 Q403.0357,186.9375 403.1763,186.8594 Q403.3326,186.7813 403.5357,186.7813 Q403.8638,186.7813 404.1138,187.0469 Q404.3794,187.2969 404.3794,187.6406 Q404.3794,187.9844 404.0357,188.3906 Q403.5357,188.9688 402.7388,189.2969 Q401.6607,189.75 400.3638,189.75 Q398.8482,189.75 397.6451,189.125 Q396.6607,188.625 395.9732,187.5625 Q395.2857,186.4844 395.2857,185.2031 L395.2857,184.0469 Q395.2857,182.7188 395.8951,181.5781 Q396.5201,180.4219 397.6138,179.8125 Q398.7076,179.1875 399.9419,179.1875 Q400.6763,179.1875 401.3169,179.3594 Q401.9732,179.5156 402.5201,179.875 Z " fill="#000000"/><text fill="#000000" font-family="sans-serif" font-size="14" lengthAdjust="spacing" textLength="97.2549" x="416.811" y="189.7285">GraphTraversal</text><line style="stroke:#181818;stroke-width:0.5;" x1="372" x2="529.8203" y1="200" y2="200"/><line style="stroke:#181818;stroke-width:0.5;" x1="372" x2="529.8203" y1="208" y2="208"/><ellipse cx="382" cy="222.3047" fill="#84BE84" rx="3" ry="3" style="stroke:#038048;stroke-width:1;"/><text fill="#000000" font-family="sans-serif" font-size="14" lengthAdjust="spacing" textLength="59.8965" x="391" y="226.5332">traverse()</text><ellipse cx="382" cy="239.9141" fill="#84BE84" rx="3" ry="3" style="stroke:#038048;stroke-width:1;"/><text fill="#000000" font-family="sans-serif" font-size="14" lengthAdjust="spacing" textLength="50.5654" x="391" y="244.1426">isValid()</text><ellipse cx="382" cy="257.5234" fill="#84BE84" rx="3" ry="3" style="stroke:#038048;stroke-width:1;"/><text fill="#000000" font-family="sans-serif" font-size="14" lengthAdjust="spacing" textLength="119.0547" x="391" y="261.752">isCoordinateValid()</text><ellipse cx="382" cy="275.1328" fill="#84BE84" rx="3" ry="3" style="stroke:#038048;stroke-width:1;"/><text fill="#000000" font-family="sans-serif" font-size="14" lengthAdjust="spacing" textLength="112.0479" x="391" y="279.3613">findNearestValid()</text><ellipse cx="382" cy="292.7422" fill="#84BE84" rx="3" ry="3" style="stroke:#038048;stroke-width:1;"/><text fill="#000000" font-family="sans-serif" font-size="14" lengthAdjust="spacing" textLength="133.8203" x="391" y="296.9707">ensureWallDistance()</text></g><!--class Node--><g class="entity" data-entity="Node" data-source-line="42" data-uid="ent0015" id="entity_Node"><rect fill="#F1F1F1" height="136.0469" rx="2.5" ry="2.5" style="stroke:#181818;stroke-width:0.5;" width="118.5996" x="28.5" y="364"/><ellipse cx="67.4089" cy="380" fill="#ADD1B2" rx="11" ry="11" style="stroke:#181818;stroke-width:1;"/><path d="M70.1745,375.875 Q70.3308,375.6563 70.5183,375.5469 Q70.7058,375.4375 70.9245,375.4375 Q71.2995,375.4375 71.5339,375.7031 Q71.7683,375.9531 71.7683,376.5625 L71.7683,378.0156 Q71.7683,378.625 71.5339,378.8906 Q71.2995,379.1563 70.9245,379.1563 Q70.5808,379.1563 70.3776,378.9531 Q70.1745,378.7656 70.0651,378.25 Q70.0183,377.8906 69.8308,377.7031 Q69.5026,377.3281 68.8933,377.1094 Q68.2839,376.8906 67.6589,376.8906 Q66.8933,376.8906 66.2526,377.2188 Q65.6276,377.5469 65.1276,378.2969 Q64.6433,379.0469 64.6433,380.0781 L64.6433,381.1719 Q64.6433,382.4063 65.5339,383.2344 Q66.4245,384.0469 68.0183,384.0469 Q68.9558,384.0469 69.612,383.7969 Q70.0026,383.6406 70.4245,383.2031 Q70.6901,382.9375 70.8308,382.8594 Q70.987,382.7813 71.1901,382.7813 Q71.5183,382.7813 71.7683,383.0469 Q72.0339,383.2969 72.0339,383.6406 Q72.0339,383.9844 71.6901,384.3906 Q71.1901,384.9688 70.3933,385.2969 Q69.3151,385.75 68.0183,385.75 Q66.5026,385.75 65.2995,385.125 Q64.3151,384.625 63.6276,383.5625 Q62.9401,382.4844 62.9401,381.2031 L62.9401,380.0469 Q62.9401,378.7188 63.5495,377.5781 Q64.1745,376.4219 65.2683,375.8125 Q66.362,375.1875 67.5964,375.1875 Q68.3308,375.1875 68.9714,375.3594 Q69.6276,375.5156 70.1745,375.875 Z " fill="#000000"/><text fill="#000000" font-family="sans-serif" font-size="14" lengthAdjust="spacing" textLength="33.4688" x="86.722" y="385.7285">Node</text><line style="stroke:#181818;stroke-width:0.5;" x1="29.5" x2="146.0996" y1="396" y2="396"/><line style="stroke:#181818;stroke-width:0.5;" x1="29.5" x2="146.0996" y1="404" y2="404"/><ellipse cx="39.5" cy="418.3047" fill="#84BE84" rx="3" ry="3" style="stroke:#038048;stroke-width:1;"/><text fill="#000000" font-family="sans-serif" font-size="14" lengthAdjust="spacing" textLength="38.124" x="48.5" y="422.5332">getX()</text><ellipse cx="39.5" cy="435.9141" fill="#84BE84" rx="3" ry="3" style="stroke:#038048;stroke-width:1;"/><text fill="#000000" font-family="sans-serif" font-size="14" lengthAdjust="spacing" textLength="38.124" x="48.5" y="440.1426">getY()</text><ellipse cx="39.5" cy="453.5234" fill="#84BE84" rx="3" ry="3" style="stroke:#038048;stroke-width:1;"/><text fill="#000000" font-family="sans-serif" font-size="14" lengthAdjust="spacing" textLength="92.5996" x="48.5" y="457.752">getNeighbors()</text><ellipse cx="39.5" cy="471.1328" fill="#84BE84" rx="3" ry="3" style="stroke:#038048;stroke-width:1;"/><text fill="#000000" font-family="sans-serif" font-size="14" lengthAdjust="spacing" textLength="89.4961" x="48.5" y="475.3613">addNeighbor()</text><ellipse cx="39.5" cy="488.7422" fill="#84BE84" rx="3" ry="3" style="stroke:#038048;stroke-width:1;"/><text fill="#000000" font-family="sans-serif" font-size="14" lengthAdjust="spacing" textLength="57.5723" x="48.5" y="492.9707">toString()</text></g><!--class Logger--><g class="entity" data-entity="Logger" data-source-line="49" data-uid="ent0016" id="entity_Logger"><rect fill="#F1F1F1" height="100.8281" rx="2.5" ry="2.5" style="stroke:#181818;stroke-width:0.5;" width="175.3926" x="182.5" y="381.5"/><ellipse cx="244.1499" cy="397.5" fill="#ADD1B2" rx="11" ry="11" style="stroke:#181818;stroke-width:1;"/><path d="M246.9155,393.375 Q247.0718,393.1563 247.2593,393.0469 Q247.4468,392.9375 247.6655,392.9375 Q248.0405,392.9375 248.2749,393.2031 Q248.5093,393.4531 248.5093,394.0625 L248.5093,395.5156 Q248.5093,396.125 248.2749,396.3906 Q248.0405,396.6563 247.6655,396.6563 Q247.3218,396.6563 247.1187,396.4531 Q246.9155,396.2656 246.8062,395.75 Q246.7593,395.3906 246.5718,395.2031 Q246.2437,394.8281 245.6343,394.6094 Q245.0249,394.3906 244.3999,394.3906 Q243.6343,394.3906 242.9937,394.7188 Q242.3687,395.0469 241.8687,395.7969 Q241.3843,396.5469 241.3843,397.5781 L241.3843,398.6719 Q241.3843,399.9063 242.2749,400.7344 Q243.1655,401.5469 244.7593,401.5469 Q245.6968,401.5469 246.353,401.2969 Q246.7437,401.1406 247.1655,400.7031 Q247.4312,400.4375 247.5718,400.3594 Q247.728,400.2813 247.9312,400.2813 Q248.2593,400.2813 248.5093,400.5469 Q248.7749,400.7969 248.7749,401.1406 Q248.7749,401.4844 248.4312,401.8906 Q247.9312,402.4688 247.1343,402.7969 Q246.0562,403.25 244.7593,403.25 Q243.2437,403.25 242.0405,402.625 Q241.0562,402.125 240.3687,401.0625 Q239.6812,399.9844 239.6812,398.7031 L239.6812,397.5469 Q239.6812,396.2188 240.2905,395.0781 Q240.9155,393.9219 242.0093,393.3125 Q243.103,392.6875 244.3374,392.6875 Q245.0718,392.6875 245.7124,392.8594 Q246.3687,393.0156 246.9155,393.375 Z " fill="#000000"/><text fill="#000000" font-family="sans-serif" font-size="14" lengthAdjust="spacing" textLength="43.5928" x="264.6499" y="403.2285">Logger</text><line style="stroke:#181818;stroke-width:0.5;" x1="183.5" x2="356.8926" y1="413.5" y2="413.5"/><line style="stroke:#181818;stroke-width:0.5;" x1="183.5" x2="356.8926" y1="421.5" y2="421.5"/><ellipse cx="193.5" cy="435.8047" fill="#84BE84" rx="3" ry="3" style="stroke:#038048;stroke-width:1;"/><text fill="#000000" font-family="sans-serif" font-size="14" lengthAdjust="spacing" textLength="84.8271" x="202.5" y="440.0332">setLogLevel()</text><ellipse cx="193.5" cy="453.4141" fill="#84BE84" rx="3" ry="3" style="stroke:#038048;stroke-width:1;"/><text fill="#000000" font-family="sans-serif" font-size="14" lengthAdjust="spacing" textLength="28.0068" x="202.5" y="457.6426">log()</text><ellipse cx="193.5" cy="471.0234" fill="#84BE84" rx="3" ry="3" style="stroke:#038048;stroke-width:1;"/><text fill="#000000" font-family="sans-serif" font-size="14" lengthAdjust="spacing" textLength="149.3926" x="202.5" y="475.252">getCallerMethodName()</text></g><!--link CollisionChecker to Figur--><g class="link" data-entity-1="CollisionChecker" data-entity-2="Figur" data-source-line="6" data-uid="lnk4" id="link_CollisionChecker_Figur"><path codeLine="6" d="M568.62,108.13 C597.01,141.99 621.7444,171.4874 643.7644,197.7474" fill="none" id="CollisionChecker-to-Figur" style="stroke:#181818;stroke-width:1;"/><polygon fill="none" points="655.33,211.54,648.3619,193.8922,639.1668,201.6026,655.33,211.54" style="stroke:#181818;stroke-width:1;"/></g><!--link Pellet to Figur--><g class="link" data-entity-1="Pellet" data-entity-2="Figur" data-source-line="13" data-uid="lnk7" id="link_Pellet_Figur"><path codeLine="13" d="M675,81.57 C675,115.4 675,160.09 675,193.92" fill="none" id="Pellet-to-Figur" style="stroke:#181818;stroke-width:1;"/><polygon fill="none" points="675,211.92,681,193.92,669,193.92,675,211.92" style="stroke:#181818;stroke-width:1;"/></g><!--link PowerDot to Figur--><g class="link" data-entity-1="PowerDot" data-entity-2="Figur" data-source-line="22" data-uid="lnk11" id="link_PowerDot_Figur"><path codeLine="22" d="M774.97,81.57 C752.93,115.4 721.9056,163.0083 699.8656,196.8383" fill="none" id="PowerDot-to-Figur" style="stroke:#181818;stroke-width:1;"/><polygon fill="none" points="690.04,211.92,704.8928,200.1135,694.8384,193.5631,690.04,211.92" style="stroke:#181818;stroke-width:1;"/></g><!--SRC=[PLB1JiCm3BttAte4eVq2qkWqE6nbeWZOqJHUOosBfyJja63_JjgqNM4tl-ValMSdfG7lquoD8KziCutb7btwdQJfNO6oOKyI-8-Rst_CDZBTXIMXKQD6Q9oJAyNPxES-NL9LkwJiF9Tay0L13MvjtN9HzmbyZb-o8ekTNhopGMDGmlbpqfTNif5VWuLgKFP7EDcvCR7beu730pSOgQa3auq60pwXMt3lEO1hrxQpPeL_ZCdBs8Yki1Tg21t-uuNA_IJ5l13eDNParGP4ntF-m2pwWZNuTaNFku8gBP4Z-y2rLVsS6ciNSb0vaNzqSDIl3Xfq7apqaGZxFEJVm90QGCRi55aGdD1jiXp1ePS9YzRN3j_1c4Mm1LjEtoyF0qUx2gN_Kw7QZbMEOOvFTdruK6fW-Zrn8OviDT5SSNLvQPG0LzYWYUSDLwDs5ZA5dQDeLZaSkbo_]--></g></svg>